<svg width="34" height="35" viewBox="0 0 34 35" fill="none" xmlns="http://www.w3.org/2000/svg">
<path fill-rule="evenodd" clip-rule="evenodd" d="M4.25 9.98959C4.25 9.40278 4.7257 8.92709 5.3125 8.92709H28.6875C29.2743 8.92709 29.75 9.40278 29.75 9.98959C29.75 10.5764 29.2743 11.0521 28.6875 11.0521H5.3125C4.7257 11.0521 4.25 10.5764 4.25 9.98959ZM4.25 17.4271C4.25 16.8403 4.7257 16.3646 5.3125 16.3646H28.6875C29.2743 16.3646 29.75 16.8403 29.75 17.4271C29.75 18.0139 29.2743 18.4896 28.6875 18.4896H5.3125C4.7257 18.4896 4.25 18.0139 4.25 17.4271ZM15.9375 24.8646C15.9375 24.2778 16.4132 23.8021 17 23.8021H28.6875C29.2743 23.8021 29.75 24.2778 29.75 24.8646C29.75 25.4514 29.2743 25.9271 28.6875 25.9271H17C16.4132 25.9271 15.9375 25.4514 15.9375 24.8646Z" fill="#262626"/>
</svg>
